G04*
G04 #@! TF.GenerationSoftware,Altium Limited,Altium Designer,20.0.2 (26)*
G04*
G04 Layer_Color=255*
%FSLAX25Y25*%
%MOIN*%
G70*
G01*
G75*
%ADD13R,0.07480X0.07087*%
%ADD14R,0.05315X0.00675*%
%ADD15R,0.05315X0.00575*%
%ADD16R,0.04724X0.05709*%
%ADD17R,0.03740X0.02559*%
%ADD18R,0.03740X0.01259*%
%ADD19R,0.04331X0.06693*%
%ADD20R,0.01072X0.01072*%
%ADD21R,0.03197X0.02985*%
%ADD36O,0.04521X0.02834*%
%ADD37R,0.05906X0.05906*%
%ADD38C,0.05906*%
%ADD39C,0.06102*%
%ADD40R,0.06102X0.06102*%
D13*
X357500Y280000D02*
D03*
Y270945D02*
D03*
D14*
X346457Y270354D02*
D03*
Y280591D02*
D03*
Y272913D02*
D03*
Y275472D02*
D03*
D15*
Y278032D02*
D03*
D16*
X319154Y282500D02*
D03*
X325846D02*
D03*
D17*
X313327Y247500D02*
D03*
Y240807D02*
D03*
D18*
X302500D02*
D03*
Y244154D02*
D03*
Y247500D02*
D03*
D19*
X267618Y282500D02*
D03*
X257382D02*
D03*
X209882Y290000D02*
D03*
X220118D02*
D03*
D20*
X178425Y287500D02*
D03*
X181575D02*
D03*
D21*
X162500Y264937D02*
D03*
Y260000D02*
D03*
D36*
X345472Y284232D02*
D03*
Y266713D02*
D03*
D37*
X355000Y227500D02*
D03*
D38*
Y237500D02*
D03*
D39*
X232500Y245000D02*
D03*
D40*
X222500D02*
D03*
M02*
