G04*
G04 #@! TF.GenerationSoftware,Altium Limited,Altium Designer,20.0.2 (26)*
G04*
G04 Layer_Color=16711935*
%FSLAX25Y25*%
%MOIN*%
G70*
G01*
G75*
%ADD11C,0.00787*%
%ADD44C,0.00394*%
D11*
X160925Y259319D02*
X164075D01*
Y265618D01*
X160925D02*
X164075D01*
X160925Y259319D02*
Y265618D01*
D44*
X239006Y245000D02*
G03*
X239006Y245000I-11506J0D01*
G01*
X345807Y260906D02*
Y290039D01*
Y260906D02*
X365532D01*
X345807Y290039D02*
X365532D01*
X367402Y291220D02*
X367894Y290532D01*
X365532Y289055D02*
X367894Y290532D01*
X365532Y290039D02*
X367402Y291220D01*
X365532Y260906D02*
X367402Y259724D01*
X365532Y261890D02*
X367894Y260413D01*
X367402Y259724D02*
X367894Y260413D01*
Y262717D02*
Y288228D01*
X365532D02*
X367894D01*
X365532D02*
Y289055D01*
Y262717D02*
X367894D01*
X365532Y261890D02*
Y262717D01*
X318169Y279646D02*
Y285354D01*
X326831Y279646D02*
Y285354D01*
X318169D02*
X326831D01*
X318169Y279646D02*
X326831D01*
X304370Y238051D02*
X311457D01*
X304370Y250256D02*
X311457D01*
Y238051D02*
Y250256D01*
X304370Y238051D02*
Y250256D01*
X255807Y278957D02*
X269193D01*
X255807Y286043D02*
X269193D01*
Y278957D02*
Y286043D01*
X255807Y278957D02*
Y286043D01*
X208307Y293543D02*
X221693D01*
X208307Y286457D02*
X221693D01*
X208307D02*
Y293543D01*
X221693Y286457D02*
Y293543D01*
X177933Y286417D02*
Y288583D01*
X182067Y286417D02*
Y288583D01*
X177933D02*
X182067D01*
X177933Y286417D02*
X182067D01*
M02*
