G04*
G04 #@! TF.GenerationSoftware,Altium Limited,Altium Designer,20.0.2 (26)*
G04*
G04 Layer_Color=8388736*
%FSLAX25Y25*%
%MOIN*%
G70*
G01*
G75*
%ADD44C,0.00394*%
%ADD45C,0.00200*%
D44*
X362736Y260906D02*
Y290039D01*
D45*
X364612Y271142D02*
Y271827D01*
X364536Y272056D01*
X364460Y272132D01*
X364308Y272208D01*
X364079D01*
X363927Y272132D01*
X363850Y272056D01*
X363774Y271827D01*
Y271142D01*
X365374D01*
X364155Y273709D02*
X364003Y273633D01*
X363850Y273480D01*
X363774Y273328D01*
Y273023D01*
X363850Y272871D01*
X364003Y272719D01*
X364155Y272642D01*
X364384Y272566D01*
X364765D01*
X364993Y272642D01*
X365145Y272719D01*
X365298Y272871D01*
X365374Y273023D01*
Y273328D01*
X365298Y273480D01*
X365145Y273633D01*
X364993Y273709D01*
X363774Y274158D02*
X365374D01*
X363774D02*
Y274844D01*
X363850Y275072D01*
X363927Y275149D01*
X364079Y275225D01*
X364231D01*
X364384Y275149D01*
X364460Y275072D01*
X364536Y274844D01*
Y274158D02*
Y274844D01*
X364612Y275072D01*
X364688Y275149D01*
X364841Y275225D01*
X365069D01*
X365222Y275149D01*
X365298Y275072D01*
X365374Y274844D01*
Y274158D01*
X363774Y277830D02*
Y276840D01*
X365374D01*
Y277830D01*
X364536Y276840D02*
Y277449D01*
X363774Y279011D02*
X365374D01*
X364536D02*
X364384Y278858D01*
X364308Y278706D01*
Y278477D01*
X364384Y278325D01*
X364536Y278173D01*
X364765Y278096D01*
X364917D01*
X365145Y278173D01*
X365298Y278325D01*
X365374Y278477D01*
Y278706D01*
X365298Y278858D01*
X365145Y279011D01*
X364308Y280351D02*
X365526D01*
X365755Y280275D01*
X365831Y280199D01*
X365907Y280047D01*
Y279818D01*
X365831Y279666D01*
X364536Y280351D02*
X364384Y280199D01*
X364308Y280047D01*
Y279818D01*
X364384Y279666D01*
X364536Y279513D01*
X364765Y279437D01*
X364917D01*
X365145Y279513D01*
X365298Y279666D01*
X365374Y279818D01*
Y280047D01*
X365298Y280199D01*
X365145Y280351D01*
X364765Y280778D02*
Y281692D01*
X364612D01*
X364460Y281616D01*
X364384Y281540D01*
X364308Y281387D01*
Y281159D01*
X364384Y281006D01*
X364536Y280854D01*
X364765Y280778D01*
X364917D01*
X365145Y280854D01*
X365298Y281006D01*
X365374Y281159D01*
Y281387D01*
X365298Y281540D01*
X365145Y281692D01*
M02*
