G04*
G04 #@! TF.GenerationSoftware,Altium Limited,Altium Designer,20.0.2 (26)*
G04*
G04 Layer_Color=32768*
%FSLAX25Y25*%
%MOIN*%
G70*
G01*
G75*
%ADD11C,0.00787*%
%ADD44C,0.00394*%
%ADD46C,0.00197*%
D11*
X160335Y258114D02*
X164665D01*
Y266823D01*
X160335D02*
X164665D01*
X160335Y258114D02*
Y266823D01*
D44*
X320531Y282500D02*
X324469D01*
X322500Y280532D02*
Y284469D01*
X307913Y242185D02*
Y246122D01*
X305945Y244154D02*
X309882D01*
X262500Y280532D02*
Y284469D01*
X260532Y282500D02*
X264469D01*
X215000Y288031D02*
Y291969D01*
X213032Y290000D02*
X216969D01*
X178917Y287500D02*
X181083D01*
X180000Y286417D02*
Y288583D01*
D46*
X239400Y245000D02*
G03*
X239400Y245000I-11900J0D01*
G01*
X355532Y275472D02*
X359469D01*
X357500Y273504D02*
Y277441D01*
X315807Y278563D02*
Y286437D01*
X329193Y278563D02*
Y286437D01*
X315807D02*
X329193D01*
X315807Y278563D02*
X329193D01*
X299646Y237067D02*
X316181D01*
X299646Y251240D02*
X316181D01*
Y237067D02*
Y251240D01*
X299646Y237067D02*
Y251240D01*
X254823Y278563D02*
X270177D01*
X254823Y286437D02*
X270177D01*
Y278563D02*
Y286437D01*
X254823Y278563D02*
Y286437D01*
X207323Y293937D02*
X222677D01*
X207323Y286063D02*
X222677D01*
X207323D02*
Y293937D01*
X222677Y286063D02*
Y293937D01*
X177047Y285925D02*
Y289075D01*
X182953Y285925D02*
Y289075D01*
X177047D02*
X182953D01*
X177047Y285925D02*
X182953D01*
M02*
