G04*
G04 #@! TF.GenerationSoftware,Altium Limited,Altium Designer,20.0.2 (26)*
G04*
G04 Layer_Physical_Order=2*
G04 Layer_Color=16711680*
%FSLAX25Y25*%
%MOIN*%
G70*
G01*
G75*
%ADD12C,0.01000*%
%ADD36O,0.04521X0.02834*%
%ADD37R,0.05906X0.05906*%
%ADD38C,0.05906*%
%ADD39C,0.06102*%
%ADD40R,0.06102X0.06102*%
%ADD41C,0.05000*%
%ADD42O,0.08268X0.05512*%
G36*
X375000Y202500D02*
X150000D01*
Y312500D01*
X375000D01*
Y202500D01*
D02*
G37*
%LPC*%
G36*
X358878Y295698D02*
X356122D01*
X355142Y295569D01*
X354228Y295190D01*
X353443Y294588D01*
X352841Y293804D01*
X352463Y292890D01*
X352334Y291909D01*
X352463Y290929D01*
X352841Y290015D01*
X353443Y289231D01*
X354228Y288629D01*
X355142Y288250D01*
X356122Y288121D01*
X358878D01*
X359858Y288250D01*
X360772Y288629D01*
X361557Y289231D01*
X362159Y290015D01*
X362537Y290929D01*
X362666Y291909D01*
X362537Y292890D01*
X362159Y293804D01*
X361557Y294588D01*
X360772Y295190D01*
X359858Y295569D01*
X358878Y295698D01*
D02*
G37*
G36*
X346316Y286697D02*
X344629D01*
X343686Y286509D01*
X342886Y285975D01*
X342352Y285175D01*
X342164Y284232D01*
X342352Y283289D01*
X342886Y282490D01*
X343686Y281956D01*
X344629Y281768D01*
X346316D01*
X347259Y281956D01*
X348059Y282490D01*
X348593Y283289D01*
X348780Y284232D01*
X348593Y285175D01*
X348059Y285975D01*
X347259Y286509D01*
X346316Y286697D01*
D02*
G37*
G36*
Y269177D02*
X344629D01*
X343686Y268989D01*
X342886Y268455D01*
X342352Y267656D01*
X342164Y266713D01*
X342352Y265770D01*
X342886Y264970D01*
X343686Y264436D01*
X344629Y264248D01*
X346316D01*
X347259Y264436D01*
X348059Y264970D01*
X348593Y265770D01*
X348780Y266713D01*
X348593Y267656D01*
X348059Y268455D01*
X347259Y268989D01*
X346316Y269177D01*
D02*
G37*
G36*
X358878Y262824D02*
X356122D01*
X355142Y262695D01*
X354228Y262316D01*
X353443Y261714D01*
X352841Y260930D01*
X352463Y260016D01*
X352334Y259035D01*
X352463Y258055D01*
X352841Y257141D01*
X353443Y256357D01*
X354228Y255755D01*
X355142Y255376D01*
X356122Y255247D01*
X358878D01*
X359858Y255376D01*
X360772Y255755D01*
X361557Y256357D01*
X362159Y257141D01*
X362537Y258055D01*
X362666Y259035D01*
X362537Y260016D01*
X362159Y260930D01*
X361557Y261714D01*
X360772Y262316D01*
X359858Y262695D01*
X358878Y262824D01*
D02*
G37*
G36*
X342100Y251929D02*
X227900D01*
X227315Y251813D01*
X226819Y251481D01*
X224388Y249051D01*
X218449D01*
Y243467D01*
X217987Y243276D01*
X216212Y245051D01*
X216310Y245286D01*
X216430Y246200D01*
X216310Y247114D01*
X215957Y247965D01*
X215396Y248696D01*
X214665Y249257D01*
X213814Y249610D01*
X212900Y249730D01*
X211986Y249610D01*
X211135Y249257D01*
X210404Y248696D01*
X209843Y247965D01*
X209490Y247114D01*
X209370Y246200D01*
X209490Y245286D01*
X209843Y244435D01*
X210404Y243704D01*
X211135Y243143D01*
X211986Y242790D01*
X212900Y242670D01*
X213814Y242790D01*
X214049Y242888D01*
X230519Y226419D01*
X231015Y226087D01*
X231600Y225971D01*
X351047D01*
Y223547D01*
X358953D01*
Y231453D01*
X351047D01*
Y229029D01*
X232234D01*
X220776Y240487D01*
X220967Y240949D01*
X226551D01*
Y246888D01*
X228534Y248871D01*
X230068D01*
X230238Y248371D01*
X229611Y247889D01*
X228961Y247043D01*
X228553Y246058D01*
X228414Y245000D01*
X228553Y243942D01*
X228961Y242957D01*
X229611Y242111D01*
X230457Y241461D01*
X231442Y241053D01*
X232500Y240914D01*
X233558Y241053D01*
X234543Y241461D01*
X235389Y242111D01*
X236039Y242957D01*
X236447Y243942D01*
X236586Y245000D01*
X236447Y246058D01*
X236039Y247043D01*
X235389Y247889D01*
X234762Y248371D01*
X234932Y248871D01*
X341466D01*
X351341Y238996D01*
X351149Y238532D01*
X351013Y237500D01*
X351149Y236468D01*
X351547Y235507D01*
X352181Y234681D01*
X353007Y234047D01*
X353968Y233649D01*
X355000Y233513D01*
X356032Y233649D01*
X356993Y234047D01*
X357819Y234681D01*
X358453Y235507D01*
X358851Y236468D01*
X358987Y237500D01*
X358851Y238532D01*
X358453Y239493D01*
X357819Y240319D01*
X356993Y240953D01*
X356032Y241351D01*
X355000Y241487D01*
X353968Y241351D01*
X353504Y241159D01*
X343181Y251481D01*
X342685Y251813D01*
X342100Y251929D01*
D02*
G37*
%LPD*%
D12*
X231600Y227500D02*
X355000D01*
X212900Y246200D02*
X231600Y227500D01*
X342100Y250400D02*
X355000Y237500D01*
X227900Y250400D02*
X342100D01*
X222500Y245000D02*
X227900Y250400D01*
D36*
X345472Y284232D02*
D03*
Y266713D02*
D03*
D37*
X355000Y227500D02*
D03*
D38*
Y237500D02*
D03*
D39*
X232500Y245000D02*
D03*
D40*
X222500D02*
D03*
D41*
X212900Y246200D02*
D03*
D42*
X357500Y259035D02*
D03*
Y291909D02*
D03*
M02*
