G04*
G04 #@! TF.GenerationSoftware,Altium Limited,Altium Designer,20.0.2 (26)*
G04*
G04 Layer_Color=8388736*
%FSLAX25Y25*%
%MOIN*%
G70*
G01*
G75*
%ADD21R,0.03197X0.02985*%
%ADD22R,0.08280X0.07887*%
%ADD23R,0.06115X0.01475*%
%ADD24R,0.06115X0.01375*%
%ADD25R,0.05524X0.06509*%
%ADD26R,0.04540X0.03359*%
%ADD27R,0.04540X0.02059*%
%ADD28R,0.05131X0.07493*%
%ADD29R,0.01872X0.01872*%
%ADD30O,0.05321X0.03634*%
%ADD31R,0.06706X0.06706*%
%ADD32C,0.06706*%
%ADD33C,0.06902*%
%ADD34R,0.06902X0.06902*%
%ADD35C,0.05800*%
G36*
X361293Y265368D02*
X361344Y265358D01*
X361394Y265341D01*
X361441Y265318D01*
X361484Y265288D01*
X361524Y265254D01*
X361558Y265214D01*
X361587Y265171D01*
X361611Y265124D01*
X361627Y265074D01*
X361638Y265023D01*
X361641Y264970D01*
Y258337D01*
Y257945D01*
X361638Y257893D01*
X361627Y257841D01*
X361611Y257792D01*
X361311Y257068D01*
X361311Y257068D01*
X361303Y257053D01*
X361288Y257021D01*
X361259Y256978D01*
X361224Y256938D01*
X361224Y256938D01*
X360670Y256384D01*
X360670Y256384D01*
X360649Y256366D01*
X360631Y256350D01*
X360602Y256330D01*
X360587Y256321D01*
X360563Y256309D01*
X360540Y256297D01*
X360540Y256297D01*
X359817Y255998D01*
X359767Y255981D01*
X359716Y255971D01*
X359663Y255967D01*
X354706D01*
X354654Y255971D01*
X354602Y255981D01*
X354553Y255998D01*
X354118Y256178D01*
X354071Y256201D01*
X354028Y256230D01*
X353989Y256264D01*
X353656Y256597D01*
X353656Y256597D01*
X353622Y256636D01*
X353592Y256680D01*
X353577Y256711D01*
X353569Y256727D01*
X353569Y256727D01*
X353390Y257161D01*
X353373Y257210D01*
X353362Y257262D01*
X353359Y257314D01*
Y257549D01*
Y264970D01*
X353362Y265023D01*
X353373Y265074D01*
X353390Y265124D01*
X353413Y265171D01*
X353442Y265214D01*
X353476Y265254D01*
X353516Y265288D01*
X353559Y265318D01*
X353606Y265341D01*
X353656Y265358D01*
X353708Y265368D01*
X353760Y265371D01*
X361240D01*
X361293Y265368D01*
D02*
G37*
G36*
X359716Y294974D02*
X359767Y294964D01*
X359784Y294958D01*
X359817Y294947D01*
X359817Y294947D01*
X360540Y294647D01*
X360540Y294647D01*
X360587Y294624D01*
X360631Y294595D01*
X360670Y294561D01*
X361224Y294007D01*
X361224Y294007D01*
X361259Y293967D01*
X361288Y293924D01*
X361303Y293892D01*
X361311Y293877D01*
X361311Y293877D01*
X361611Y293153D01*
X361627Y293104D01*
X361638Y293052D01*
X361641Y293000D01*
Y292608D01*
Y285974D01*
X361638Y285922D01*
X361627Y285871D01*
X361611Y285821D01*
X361587Y285774D01*
X361558Y285730D01*
X361524Y285691D01*
X361484Y285656D01*
X361441Y285627D01*
X361394Y285604D01*
X361344Y285587D01*
X361293Y285577D01*
X361240Y285574D01*
X353760D01*
X353708Y285577D01*
X353656Y285587D01*
X353606Y285604D01*
X353559Y285627D01*
X353516Y285656D01*
X353476Y285691D01*
X353442Y285730D01*
X353413Y285774D01*
X353390Y285821D01*
X353373Y285871D01*
X353362Y285922D01*
X353359Y285974D01*
Y293396D01*
Y293631D01*
X353362Y293683D01*
X353373Y293734D01*
X353390Y293784D01*
X353569Y294218D01*
X353569Y294218D01*
X353577Y294234D01*
X353592Y294265D01*
X353622Y294309D01*
X353656Y294348D01*
X353656Y294348D01*
X353988Y294680D01*
X353988Y294680D01*
X354028Y294715D01*
X354071Y294744D01*
X354118Y294767D01*
X354119Y294767D01*
X354553Y294947D01*
X354553Y294947D01*
X354585Y294958D01*
X354602Y294964D01*
X354654Y294974D01*
X354706Y294978D01*
X354706D01*
D01*
X359663D01*
D01*
X359663D01*
X359716Y294974D01*
D02*
G37*
D21*
X162500Y264937D02*
D03*
Y260000D02*
D03*
D22*
X357500Y280000D02*
D03*
Y270945D02*
D03*
D23*
X346457Y270354D02*
D03*
Y280591D02*
D03*
Y272913D02*
D03*
Y275472D02*
D03*
D24*
Y278032D02*
D03*
D25*
X319154Y282500D02*
D03*
X325846D02*
D03*
D26*
X313327Y247500D02*
D03*
Y240807D02*
D03*
D27*
X302500D02*
D03*
Y244154D02*
D03*
Y247500D02*
D03*
D28*
X267618Y282500D02*
D03*
X257382D02*
D03*
X209882Y290000D02*
D03*
X220118D02*
D03*
D29*
X178425Y287500D02*
D03*
X181575D02*
D03*
D30*
X345472Y284232D02*
D03*
Y266713D02*
D03*
D31*
X355000Y227500D02*
D03*
D32*
Y237500D02*
D03*
D33*
X232500Y245000D02*
D03*
D34*
X222500D02*
D03*
D35*
X212900Y246200D02*
D03*
M02*
