G04*
G04 #@! TF.GenerationSoftware,Altium Limited,Altium Designer,20.0.2 (26)*
G04*
G04 Layer_Color=8421504*
%FSLAX25Y25*%
%MOIN*%
G70*
G01*
G75*
%ADD13R,0.07480X0.07087*%
%ADD14R,0.05315X0.00675*%
%ADD15R,0.05315X0.00575*%
%ADD16R,0.04724X0.05709*%
%ADD17R,0.03740X0.02559*%
%ADD18R,0.03740X0.01259*%
%ADD19R,0.04331X0.06693*%
%ADD20R,0.01072X0.01072*%
%ADD21R,0.03197X0.02985*%
G36*
X361240Y258337D02*
Y257945D01*
X360941Y257222D01*
X360387Y256668D01*
X359663Y256368D01*
X354706D01*
X354272Y256548D01*
X353940Y256880D01*
X353760Y257314D01*
Y257549D01*
Y264970D01*
X361240D01*
Y258337D01*
D02*
G37*
G36*
X360387Y294277D02*
X360941Y293723D01*
X361240Y293000D01*
Y292608D01*
Y285974D01*
X353760D01*
Y293396D01*
Y293631D01*
X353940Y294065D01*
X354272Y294397D01*
X354706Y294577D01*
X359663D01*
X360387Y294277D01*
D02*
G37*
D13*
X357500Y280000D02*
D03*
Y270945D02*
D03*
D14*
X346457Y270354D02*
D03*
Y280591D02*
D03*
Y272913D02*
D03*
Y275472D02*
D03*
D15*
Y278032D02*
D03*
D16*
X319154Y282500D02*
D03*
X325846D02*
D03*
D17*
X313327Y247500D02*
D03*
Y240807D02*
D03*
D18*
X302500D02*
D03*
Y244154D02*
D03*
Y247500D02*
D03*
D19*
X267618Y282500D02*
D03*
X257382D02*
D03*
X209882Y290000D02*
D03*
X220118D02*
D03*
D20*
X178425Y287500D02*
D03*
X181575D02*
D03*
D21*
X162500Y264937D02*
D03*
Y260000D02*
D03*
M02*
